<?xml version="1.0" standalone="no"?><!DOCTYPE svg PUBLIC "-//W3C//DTD SVG 1.1//EN" "http://www.w3.org/Graphics/SVG/1.1/DTD/svg11.dtd"><svg t="1607049914929" class="icon" viewBox="0 0 1024 1024" version="1.1" xmlns="http://www.w3.org/2000/svg" p-id="5213" width="32" height="32" xmlns:xlink="http://www.w3.org/1999/xlink"><defs><style type="text/css"></style></defs><path d="M512 64c-247.424 0-448 200.576-448 448 0 247.424 200.576 448 448 448 247.41888 0 448-200.576 448-448C960 264.576 759.41888 64 512 64zM776.85248 751.62624c6.9632 6.96832 6.9632 18.25792 0 25.23136-6.96832 6.95808-18.25792 6.95808-25.23136 0L512 537.22624l-239.62624 239.63136c-6.96832 6.95808-18.25792 6.95808-25.22624 0-6.96832-6.96832-6.96832-18.25792 0-25.23136L486.77376 512 247.14752 272.37376c-6.96832-6.96832-6.96832-18.25792 0-25.22624 6.9632-6.9632 18.25792-6.9632 25.22624 0L512 486.77376l239.62624-239.62624c6.96832-6.9632 18.25792-6.9632 25.23136 0 6.9632 6.9632 6.9632 18.25792 0 25.22624L537.22624 512 776.85248 751.62624z" p-id="5214" fill="#e8989a"></path></svg>