<?xml version="1.0" standalone="no"?><!DOCTYPE svg PUBLIC "-//W3C//DTD SVG 1.1//EN" "http://www.w3.org/Graphics/SVG/1.1/DTD/svg11.dtd"><svg t="1607052557324" class="icon" viewBox="0 0 1024 1024" version="1.1" xmlns="http://www.w3.org/2000/svg" p-id="4664" data-spm-anchor-id="a313x.7781069.0.i4" width="32" height="32" xmlns:xlink="http://www.w3.org/1999/xlink"><defs><style type="text/css"></style></defs><path d="M512 512m-448 0a448 448 0 1 0 896 0 448 448 0 1 0-896 0Z" fill="#e8989a" p-id="4665" data-spm-anchor-id="a313x.7781069.0.i5" class=""></path><path d="M567.12 477.88c-5.37 0-10.75-2.05-14.85-6.15-8.2-8.2-8.2-21.5 0-29.7l189-189c8.2-8.2 21.49-8.2 29.7 0 8.2 8.2 8.2 21.5 0 29.7l-189 189c-4.1 4.09-9.47 6.15-14.85 6.15zM456.88 477.88c-5.37 0-10.75-2.05-14.85-6.15l-189-189c-8.2-8.2-8.2-21.5 0-29.7s21.49-8.2 29.7 0l189 189c8.2 8.2 8.2 21.5 0 29.7a21.003 21.003 0 0 1-14.85 6.15zM756.12 777.12c-5.37 0-10.75-2.05-14.85-6.15l-189-189c-8.2-8.2-8.2-21.5 0-29.7s21.49-8.2 29.7 0l189 189c8.2 8.2 8.2 21.5 0 29.7-4.1 4.1-9.47 6.15-14.85 6.15zM267.88 777.12c-5.37 0-10.75-2.05-14.85-6.15-8.2-8.2-8.2-21.5 0-29.7l189-189c8.2-8.2 21.49-8.2 29.7 0 8.2 8.2 8.2 21.5 0 29.7l-189 189a20.96 20.96 0 0 1-14.85 6.15z" fill="#ffffff" p-id="4666" data-spm-anchor-id="a313x.7781069.0.i6" class=""></path><path d="M260 438.5c-11.59 0-21-9.4-21-21V275.75c0-20.26 16.49-36.75 36.75-36.75H417.5c11.59 0 21 9.4 21 21s-9.41 21-21 21H281v136.5c0 11.6-9.41 21-21 21zM764 438.5c-11.59 0-21-9.4-21-21V281H606.5c-11.59 0-21-9.4-21-21s9.41-21 21-21h141.75c20.26 0 36.75 16.49 36.75 36.75V417.5c0 11.6-9.41 21-21 21zM748.25 281h0.14-0.14zM417.5 785H275.75c-20.26 0-36.75-16.49-36.75-36.75V606.5c0-11.6 9.41-21 21-21s21 9.4 21 21V743h136.5c11.59 0 21 9.4 21 21s-9.41 21-21 21zM748.25 785H606.5c-11.59 0-21-9.4-21-21s9.41-21 21-21H743V606.5c0-11.6 9.41-21 21-21s21 9.4 21 21v141.75c0 20.26-16.49 36.75-36.75 36.75z" fill="#ffffff" p-id="4667" data-spm-anchor-id="a313x.7781069.0.i3" class=""></path></svg>