<svg width="50" height="50" xmlns="http://www.w3.org/2000/svg">
 <!-- Created with Method Draw - http://github.com/duopixel/Method-Draw/ -->
 <g>
  <title>background</title>
  <rect fill="rgb(255,255,255,0)" id="canvas_background" height="52" width="52" y="-1" x="-1"/>
  <g display="none" overflow="visible" y="0" x="0" height="100%" width="100%" id="canvasGrid">
   <rect fill="url(#gridpattern)" stroke-width="0" y="0" x="0" height="100%" width="100%"/>
  </g>
 </g>
 <g>
  <title>Layer 1</title>
  <ellipse ry="14.840021" rx="14.208531" id="svg_5" cy="20.699946" cx="21.589953" fill-opacity="null" stroke-opacity="null" stroke-width="0" stroke="#000" fill="#ffffff"/>
  <ellipse ry="25" rx="25" id="svg_7" cy="24.999999" cx="25" stroke-opacity="null" stroke-width="0" stroke="#000" fill="#4d9dff"/>
  <path stroke="#000" id="svg_9" d="m24.997395,10.908537c1.539539,0.001859 3.01029,0.256431 4.403159,0.681723l-1.102356,1.82078l7.824937,0l-1.956735,-3.236314l-1.955241,-3.235346l-1.029254,1.70482c-1.928986,-0.673513 -4.008507,-1.050448 -6.183108,-1.050448c-10.009529,0 -18.122567,7.748509 -18.122567,17.307662c0,3.967363 1.412926,7.6125 3.764345,10.532998l2.75563,-2.020577c-1.901762,-2.360163 -3.045206,-5.305318 -3.05141,-8.511466c0.013851,-7.728449 6.561059,-13.981981 14.652598,-13.993831l0.000001,0zm14.360132,3.463528l-2.755624,2.021544c1.901283,2.359265 3.044733,5.302564 3.049964,8.509664c-0.013852,7.728385 -6.561059,13.981024 -14.653069,13.993759c-1.433952,-0.00177 -2.805802,-0.224443 -4.113615,-0.596835l1.037353,-1.713082l-7.824902,0l1.955287,3.234523l1.956698,3.238984l1.090888,-1.80795c1.850138,0.6151 3.830245,0.958262 5.89829,0.959155c10.010973,-0.001781 18.122619,-7.750298 18.124971,-17.309458c-0.002352,-3.967354 -1.416282,-7.611602 -3.766242,-10.530303l0,-0.000001z" stroke-opacity="null" stroke-width="0" fill="#ffffff"/>
 </g>
</svg>