<?xml version="1.0" standalone="no"?><!DOCTYPE svg PUBLIC "-//W3C//DTD SVG 1.1//EN" "http://www.w3.org/Graphics/SVG/1.1/DTD/svg11.dtd"><svg t="1607051453490" class="icon" viewBox="0 0 1024 1024" version="1.1" xmlns="http://www.w3.org/2000/svg" p-id="53279" width="32" height="32" xmlns:xlink="http://www.w3.org/1999/xlink"><defs><style type="text/css"></style></defs><path d="M844.752 167.712c-33.247-32.092-70.873-59.152-111.745-80.459-67.758-35.273-144.187-53.901-221.05-53.901-264.254 0.022-479.27 215.037-479.27 479.335s215.015 479.314 479.292 479.314c264.298 0 479.335-215.015 479.335-479.314 0-131.289-52.049-253.819-146.561-344.975zM509.189 883.959c-204.928 0-371.643-166.714-371.643-371.664s166.714-371.643 371.643-371.643c68.825 0 136.059 18.977 194.406 54.838 9.804 6.035 12.877 18.867 6.819 28.672-6.013 9.804-18.89 12.832-28.65 6.841-51.766-31.831-111.462-48.672-172.575-48.672-181.943 0-329.964 148.021-329.964 329.986 0 181.943 148.021 329.986 329.964 329.986 181.965 0 329.986-148.042 329.986-329.986 0-11.503 9.324-20.85 20.828-20.85 11.526 0 20.85 9.324 20.85 20.85 0.022 204.928-166.736 371.643-371.664 371.643zM585.639 314.054c0 42.135-34.293 76.407-76.429 76.407s-76.407-34.271-76.407-76.407 34.271-76.429 76.407-76.429 76.429 34.293 76.429 76.429zM474.461 314.054c0 19.193 15.558 34.75 34.75 34.75s34.75-15.558 34.75-34.75c0-19.193-15.558-34.75-34.75-34.75-19.191 0-34.75 15.558-34.75 34.75z" p-id="53280" fill="#e8989a"></path></svg>